<svg xmlns="http://www.w3.org/2000/svg" viewBox="0 0 1200 620" role="img" aria-label="Eindresultaat Zorgportaal">
  <rect width="1200" height="620" fill="#f0fdf4"/>
  <g transform="translate(320 60)">
    <rect width="230" height="470" rx="30" fill="#111827"/>
    <rect x="10" y="10" width="210" height="450" rx="22" fill="#ffffff"/>
    <rect x="26" y="40" width="178" height="210" rx="10" fill="#dcfce7"/>
    <path d="M60 210l44-64 36 46 32-72 60 90z" fill="#22c55e"/>
    <circle cx="115" cy="120" r="14" fill="#166534"/>
    <rect x="26" y="266" width="120" height="14" rx="5" fill="#e5e7eb"/>
    <rect x="26" y="292" width="178" height="14" rx="5" fill="#e5e7eb"/>
    <rect x="26" y="330" width="178" height="40" rx="10" fill="#22c55e"/>
  </g>
  <g transform="translate(620 100)">
    <rect width="230" height="470" rx="30" fill="#111827" opacity="0.9"/>
    <rect x="10" y="10" width="210" height="450" rx="22" fill="#ffffff"/>
    <rect x="26" y="40" width="140" height="16" rx="5" fill="#dcfce7"/>
    <rect x="26" y="76" width="178" height="70" rx="10" fill="#f0fdf4"/>
    <rect x="26" y="158" width="178" height="70" rx="10" fill="#f0fdf4"/>
    <rect x="26" y="240" width="178" height="70" rx="10" fill="#f0fdf4"/>
    <rect x="26" y="330" width="178" height="40" rx="10" fill="#22c55e"/>
  </g>
  <text x="600" y="596" text-anchor="middle" font-family="sans-serif" font-size="26" fill="#166534">Eindresultaat — 1200×620</text>
</svg>
